<svg xmlns="http://www.w3.org/2000/svg" version="1.1" width="3300" height="2000"><g id="Notes"><style>
    text {
      font-family: monospace;
      text-anchor: middle;
    }
    text.emphasis {
      font-weight:bold;
    }
    text.lanchor {
      text-anchor: start;
    }
  </style><rect height="2200" id="artboard" fill="white" width="3300" x="0" y="0"/><line id="" style="fill:none;stroke:black;stroke-width:0.5;" x1="263" x2="3036" y1="292" y2="292"/><text class="lanchor emphasis" transform="matrix(1 0 0 1 263 322)">Weight/Scale Variations</text><text transform="matrix(1 0 0 1 559.711 322)">Ultralight</text><text transform="matrix(1 0 0 1 856.422 322)">Thin</text><text transform="matrix(1 0 0 1 1153.13 322)">Light</text><text transform="matrix(1 0 0 1 1449.84 322)">Regular</text><text transform="matrix(1 0 0 1 1746.56 322)">Medium</text><text transform="matrix(1 0 0 1 2043.27 322)">Semibold</text><text transform="matrix(1 0 0 1 2339.98 322)">Bold</text><text transform="matrix(1 0 0 1 2636.69 322)">Heavy</text><text transform="matrix(1 0 0 1 2933.4 322)">Black</text><text id="template-version" style="text-anchor: end;" transform="matrix(1 0 0 1 3036 1933)">Template v.1.0</text><text class="lanchor" transform="matrix(1 0 0 1 263 726)">Small</text><text class="lanchor" transform="matrix(1 0 0 1 263 1156)">Medium</text><text class="lanchor" transform="matrix(1 0 0 1 263 1586)">Large</text></g><g id="Guides"><g id="H-reference" style="fill:#27AAE1;stroke:none;" transform="matrix(1 0 0 1 339 696)"><path d="M 54.9316 0 L 57.666 0 L 30.5664 -70.459 L 28.0762 -70.459 L 0.976562 0 L 3.66211 0 L 12.9395 -24.4629 L 45.7031 -24.4629 Z M 29.1992 -67.0898 L 29.4434 -67.0898 L 44.8242 -26.709 L 13.8184 -26.709 Z"/></g><line id="Baseline-S" style="fill:none;stroke:#27AAE1;opacity:1;stroke-width:0.577;" x1="263" x2="3036" y1="696" y2="696"/><line id="Capline-S" style="fill:none;stroke:#27AAE1;opacity:1;stroke-width:0.577;" x1="263" x2="3036" y1="625.541" y2="625.541"/><g id="H-reference" style="fill:#27AAE1;stroke:none;" transform="matrix(1 0 0 1 339 1126)"><path d="M 54.9316 0 L 57.666 0 L 30.5664 -70.459 L 28.0762 -70.459 L 0.976562 0 L 3.66211 0 L 12.9395 -24.4629 L 45.7031 -24.4629 Z M 29.1992 -67.0898 L 29.4434 -67.0898 L 44.8242 -26.709 L 13.8184 -26.709 Z"/></g><line id="Baseline-M" style="fill:none;stroke:#27AAE1;opacity:1;stroke-width:0.577;" x1="263" x2="3036" y1="1126" y2="1126"/><line id="Capline-M" style="fill:none;stroke:#27AAE1;opacity:1;stroke-width:0.577;" x1="263" x2="3036" y1="1055.54" y2="1055.54"/><g id="H-reference" style="fill:#27AAE1;stroke:none;" transform="matrix(1 0 0 1 339 1556)"><path d="M 54.9316 0 L 57.666 0 L 30.5664 -70.459 L 28.0762 -70.459 L 0.976562 0 L 3.66211 0 L 12.9395 -24.4629 L 45.7031 -24.4629 Z M 29.1992 -67.0898 L 29.4434 -67.0898 L 44.8242 -26.709 L 13.8184 -26.709 Z"/></g><line id="Baseline-L" style="fill:none;stroke:#27AAE1;opacity:1;stroke-width:0.577;" x1="263" x2="3036" y1="1556" y2="1556"/><line id="Capline-L" style="fill:none;stroke:#27AAE1;opacity:1;stroke-width:0.577;" x1="263" x2="3036" y1="1485.54" y2="1485.54"/><rect height="119.336" id="left-margin" style="fill:darkred;stroke:none;opacity:0.4;" width="12.4512" x="1394.06" y="1030.79"/><rect height="119.336" id="right-margin" style="fill:darkgreen;stroke:none;opacity:0.4;" width="12.4512" x="1502.5112" y="1030.79"/><rect x="1406.5112" y="1045" width="96" height="96" fill="none" stroke="blue" stroke-dasharray="5"/><rect x="1394.06" y="1030.79" width="120.9024" height="119.336" fill="none" stroke="blue"/></g><g id="Symbols"><g id="Bold-L" transform="matrix(1 0 0 1 2266 1556)"><path d="M76.325 19.595 Q77.078 19.595 78.126 19.273 Q79.174 18.95 79.98 18.144 L133.676 -35.714 Q136.088 -38.135 137.462 -41.43 Q138.836 -44.725 138.836 -48.342 Q138.836 -51.839 137.462 -55.314 Q136.088 -58.789 133.676 -61.352 L109.166 -85.862 Q106.909 -87.959 103.952 -89.007 Q100.994 -90.055 97.959 -90.055 Q94.976 -90.055 92.074 -89.087 Q89.171 -88.12 87.236 -86.346 L85.463 -84.411 L97.556 -72.317 Q100.136 -69.415 102.152 -65.706 Q104.168 -61.997 104.168 -57.472 Q104.168 -50.065 98.268 -44.26 Q92.369 -38.455 84.762 -38.455 Q79.819 -38.455 76.513 -39.987 Q73.207 -41.519 70.356 -44.396 L58.856 -55.87 L32.572 -29.586 Q31.766 -28.941 31.444 -27.97 Q31.121 -26.998 31.121 -25.979 Q31.121 -23.942 32.411 -22.652 Q33.701 -21.362 35.744 -21.362 Q36.765 -21.362 37.733 -21.846 Q38.7 -22.33 39.345 -22.975 L59.985 -43.615 L66.758 -36.842 L46.289 -16.378 Q45.473 -15.557 45.15 -14.48 Q44.828 -13.403 44.828 -12.494 Q44.828 -10.478 46.117 -9.148 Q47.407 -7.817 49.343 -7.817 Q50.31 -7.817 51.278 -8.221 Q52.245 -8.624 53.061 -9.278 L73.369 -29.747 L80.141 -22.975 L59.515 -2.506 Q59.017 -1.851 58.534 -0.803 Q58.05 0.245 58.05 1.213 Q58.05 3.212 59.461 4.631 Q60.872 6.05 62.861 6.05 Q63.855 6.05 64.742 5.647 Q65.629 5.244 66.274 4.599 L86.914 -16.202 L93.686 -9.43 L73.046 11.21 Q72.401 12.016 71.998 13.094 Q71.595 14.171 71.595 14.919 Q71.595 17.241 72.885 18.418 Q74.175 19.595 76.325 19.595 Z M76.443 32.979 Q70.305 32.979 65.387 28.948 Q60.469 24.916 59.017 18.608 Q53.858 17.66 50.068 13.79 Q46.279 9.92 45.311 4.921 Q40.474 3.793 36.765 0.084 Q33.056 -3.625 31.928 -8.462 Q25.8 -9.914 21.688 -14.836 Q17.576 -19.759 17.576 -26.209 Q17.576 -29.586 18.983 -32.98 Q20.39 -36.375 22.736 -38.939 L58.856 -75.059 L79.013 -55.064 Q80.303 -53.774 81.861 -52.967 Q83.42 -52.161 85.14 -52.161 Q87.144 -52.161 88.883 -54.016 Q90.623 -55.87 90.623 -57.83 Q90.623 -58.772 89.897 -60.143 Q89.171 -61.514 88.043 -62.804 L64.65 -86.197 Q62.726 -88.12 59.582 -89.087 Q56.438 -90.055 53.093 -90.055 Q49.64 -90.055 46.83 -89.087 Q44.021 -88.12 42.257 -86.208 L19.35 -63.61 Q17.576 -61.675 16.77 -59.014 Q15.964 -56.354 15.964 -52.726 Q16.125 -50.226 17.415 -47.969 Q18.705 -45.711 20.156 -43.776 L10.643 -34.262 Q7.418 -37.004 5.16 -42.325 Q2.902 -47.646 2.741 -52.967 Q2.58 -59.095 4.354 -64.094 Q6.128 -69.092 9.998 -72.962 L32.572 -95.699 Q36.443 -99.569 42.071 -101.423 Q47.699 -103.277 53.217 -103.277 Q59.219 -103.277 64.558 -101.423 Q69.898 -99.569 73.691 -96.021 L75.626 -94.247 L77.4 -96.021 Q81.109 -99.407 86.719 -101.343 Q92.33 -103.277 98.007 -103.277 Q103.684 -103.277 109.166 -101.181 Q114.649 -99.085 118.519 -95.215 L143.996 -69.899 Q148.031 -65.93 150.045 -60.008 Q152.059 -54.086 152.059 -48.418 Q152.059 -42.589 149.801 -36.571 Q147.544 -30.554 143.513 -26.361 L89.332 27.658 Q86.752 30.238 83.442 31.608 Q80.131 32.979 76.443 32.979 Z"/></g><g id="Semibold-L" transform="matrix(1 0 0 1 1970.27 1556)"><path d="M76.442 19.595 Q77.218 19.595 78.266 19.238 Q79.314 18.88 80.05 18.144 L134.027 -35.994 Q136.301 -38.274 137.534 -41.305 Q138.766 -44.336 138.766 -47.549 Q138.766 -50.717 137.534 -53.873 Q136.301 -57.029 134.027 -59.39 L107.554 -85.862 Q105.366 -87.959 102.503 -89.007 Q99.64 -90.055 96.733 -90.055 Q93.878 -90.055 91.069 -89.053 Q88.26 -88.05 86.255 -86.136 L83.99 -83.78 L96.505 -71.196 Q98.874 -68.574 100.715 -65.18 Q102.555 -61.787 102.555 -57.687 Q102.555 -50.836 97.152 -45.522 Q91.75 -40.208 84.786 -40.208 Q80.239 -40.208 77.214 -41.599 Q74.189 -42.991 71.618 -45.587 L59.978 -57.202 L32.432 -29.656 Q31.626 -28.941 31.303 -28.005 Q30.981 -27.068 30.981 -26.049 Q30.981 -24.013 32.306 -22.687 Q33.631 -21.362 35.674 -21.362 Q36.695 -21.362 37.627 -21.846 Q38.56 -22.33 39.205 -22.975 L60.546 -44.316 L67.318 -37.544 L46.144 -16.372 Q45.332 -15.557 45.01 -14.528 Q44.687 -13.498 44.687 -12.564 Q44.687 -10.583 46.047 -9.2 Q47.407 -7.817 49.343 -7.817 Q50.31 -7.817 51.243 -8.221 Q52.175 -8.624 52.916 -9.274 L74.07 -30.519 L80.842 -23.746 L59.579 -2.572 Q59.017 -1.921 58.569 -0.885 Q58.12 0.151 58.12 1.142 Q58.12 3.114 59.548 4.547 Q60.977 5.98 62.942 5.98 Q63.925 5.98 64.777 5.612 Q65.629 5.244 66.344 4.529 L87.685 -16.904 L94.457 -10.131 L73.116 11.21 Q72.401 12.016 72.033 13.046 Q71.665 14.076 71.665 14.849 Q71.665 17.143 72.955 18.369 Q74.245 19.595 76.442 19.595 Z M76.513 31.366 Q70.726 31.366 66.123 27.37 Q61.52 23.374 60.349 17.276 Q55.049 16.398 51.295 12.598 Q47.541 8.798 46.643 3.589 Q41.525 2.601 37.852 -1.143 Q34.178 -4.887 33.189 -9.935 Q27.132 -11.106 23.125 -15.641 Q19.119 -20.175 19.119 -26.275 Q19.119 -29.376 20.385 -32.49 Q21.652 -35.603 23.858 -37.957 L59.978 -74.077 L79.083 -55.064 Q80.373 -53.774 81.908 -53.002 Q83.443 -52.231 85.07 -52.231 Q87.114 -52.231 88.903 -54.086 Q90.693 -55.94 90.693 -57.97 Q90.693 -58.913 90.037 -60.213 Q89.382 -61.514 88.183 -62.804 L64.935 -86.052 Q62.937 -88.05 59.967 -89.053 Q56.998 -90.055 53.916 -90.055 Q50.796 -90.055 48.039 -89.053 Q45.283 -88.05 43.379 -86.068 L19.771 -62.628 Q17.787 -60.553 16.945 -57.963 Q16.104 -55.372 16.034 -51.955 Q16.055 -49.175 17.38 -46.602 Q18.705 -44.029 20.367 -41.883 L11.974 -33.491 Q8.749 -36.583 6.597 -41.764 Q4.445 -46.945 4.354 -52.196 Q4.262 -57.763 6.071 -62.516 Q7.88 -67.27 11.54 -70.929 L34.886 -94.367 Q38.616 -98.097 43.746 -99.881 Q48.875 -101.665 54.042 -101.665 Q59.482 -101.665 64.428 -99.881 Q69.374 -98.097 73.06 -94.549 L75.416 -92.285 L77.68 -94.549 Q81.319 -98.005 86.439 -99.835 Q91.559 -101.665 96.815 -101.665 Q102.071 -101.665 107.098 -99.744 Q112.125 -97.823 115.855 -94.093 L142.804 -67.235 Q146.627 -63.449 148.537 -58.136 Q150.446 -52.824 150.446 -47.589 Q150.446 -42.264 148.399 -36.935 Q146.352 -31.605 142.531 -27.693 L88.281 26.466 Q85.911 28.835 82.881 30.101 Q79.851 31.366 76.513 31.366 Z"/></g><g id="Medium-L" transform="matrix(1 0 0 1 1674.31 1556)"><path d="M76.529 19.595 Q77.323 19.595 78.371 19.211 Q79.419 18.827 80.103 18.144 L134.29 -36.204 Q136.461 -38.378 137.588 -41.211 Q138.714 -44.044 138.714 -46.954 Q138.714 -49.876 137.588 -52.792 Q136.461 -55.709 134.29 -57.917 L106.344 -85.862 Q104.21 -87.959 101.417 -89.007 Q98.624 -90.055 95.812 -90.055 Q93.054 -90.055 90.315 -89.026 Q87.576 -87.997 85.519 -85.978 L82.886 -83.307 L95.716 -70.354 Q97.928 -67.943 99.637 -64.786 Q101.346 -61.629 101.346 -57.848 Q101.346 -51.415 96.316 -46.468 Q91.286 -41.522 84.804 -41.522 Q80.555 -41.522 77.74 -42.809 Q74.925 -44.095 72.564 -46.481 L60.819 -58.201 L32.327 -29.709 Q31.521 -28.941 31.198 -28.031 Q30.876 -27.12 30.876 -26.102 Q30.876 -24.065 32.227 -22.714 Q33.579 -21.362 35.621 -21.362 Q36.642 -21.362 37.549 -21.846 Q38.455 -22.33 39.1 -22.975 L60.967 -44.842 L67.739 -38.069 L46.036 -16.367 Q45.227 -15.557 44.905 -14.564 Q44.582 -13.57 44.582 -12.616 Q44.582 -10.662 45.995 -9.24 Q47.407 -7.817 49.343 -7.817 Q50.31 -7.817 51.216 -8.221 Q52.122 -8.624 52.808 -9.271 L74.596 -31.097 L81.368 -24.325 L59.627 -2.621 Q59.017 -1.974 58.595 -0.946 Q58.173 0.081 58.173 1.09 Q58.173 3.04 59.614 4.484 Q61.056 5.927 63.004 5.927 Q63.978 5.927 64.803 5.586 Q65.629 5.244 66.396 4.476 L88.263 -17.429 L95.036 -10.657 L73.169 11.21 Q72.401 12.016 72.059 13.01 Q71.718 14.004 71.718 14.796 Q71.718 17.069 73.008 18.332 Q74.298 19.595 76.529 19.595 Z M76.566 30.157 Q71.041 30.157 66.675 26.187 Q62.309 22.217 61.349 16.277 Q55.943 15.452 52.215 11.704 Q48.487 7.957 47.642 2.59 Q42.314 1.707 38.667 -2.063 Q35.019 -5.833 34.136 -11.039 Q28.131 -12 24.203 -16.244 Q20.275 -20.488 20.275 -26.325 Q20.275 -29.218 21.437 -32.122 Q22.598 -35.025 24.699 -37.221 L60.819 -73.341 L79.135 -55.064 Q80.425 -53.774 81.943 -53.029 Q83.461 -52.284 85.017 -52.284 Q87.091 -52.284 88.918 -54.138 Q90.745 -55.993 90.745 -58.075 Q90.745 -59.018 90.142 -60.266 Q89.539 -61.514 88.288 -62.804 L65.149 -85.943 Q63.094 -87.997 60.257 -89.026 Q57.419 -90.055 54.534 -90.055 Q51.663 -90.055 48.946 -89.026 Q46.23 -87.997 44.22 -85.963 L20.086 -61.892 Q17.944 -59.712 17.077 -57.174 Q16.209 -54.636 16.086 -51.376 Q16.002 -48.386 17.354 -45.576 Q18.705 -42.767 20.524 -40.464 L12.974 -32.913 Q9.749 -36.268 7.675 -41.343 Q5.602 -46.419 5.563 -51.618 Q5.525 -56.764 7.36 -61.333 Q9.195 -65.903 12.697 -69.405 L36.621 -93.368 Q40.246 -96.992 45.002 -98.724 Q49.758 -100.456 54.661 -100.456 Q59.679 -100.456 64.33 -98.724 Q68.981 -96.992 72.587 -93.445 L75.258 -90.812 L77.891 -93.445 Q81.477 -96.954 86.228 -98.705 Q90.98 -100.456 95.921 -100.456 Q100.862 -100.456 105.547 -98.666 Q110.232 -96.877 113.857 -93.252 L141.91 -65.237 Q145.575 -61.588 147.406 -56.733 Q149.237 -51.877 149.237 -46.968 Q149.237 -42.02 147.348 -37.207 Q145.458 -32.394 141.795 -28.692 L87.492 25.572 Q85.28 27.784 82.46 28.97 Q79.64 30.157 76.566 30.157 Z"/></g><g id="Regular-L" transform="matrix(1 0 0 1 1378.56 1556)"><path d="M76.594 19.595 Q77.4 19.595 78.448 19.192 Q79.496 18.789 80.141 18.144 L134.483 -36.359 Q136.579 -38.455 137.627 -41.143 Q138.675 -43.83 138.675 -46.517 Q138.675 -49.259 137.627 -52 Q136.579 -54.741 134.483 -56.837 L105.457 -85.862 Q103.361 -87.959 100.62 -89.007 Q97.879 -90.055 95.138 -90.055 Q92.45 -90.055 89.763 -89.007 Q87.075 -87.959 84.979 -85.862 L82.076 -82.96 L95.138 -69.737 Q97.234 -67.48 98.846 -64.497 Q100.459 -61.514 100.459 -57.966 Q100.459 -51.839 95.702 -47.162 Q90.945 -42.486 84.817 -42.486 Q80.786 -42.486 78.126 -43.696 Q75.465 -44.905 73.258 -47.137 L61.436 -58.934 L32.25 -29.747 Q31.444 -28.941 31.121 -28.05 Q30.799 -27.159 30.799 -26.141 Q30.799 -24.104 32.169 -22.733 Q33.54 -21.362 35.583 -21.362 Q36.604 -21.362 37.491 -21.846 Q38.377 -22.33 39.023 -22.975 L61.275 -45.227 L68.047 -38.455 L45.956 -16.364 Q45.15 -15.557 44.828 -14.59 Q44.505 -13.622 44.505 -12.655 Q44.505 -10.72 45.956 -9.269 Q47.407 -7.817 49.343 -7.817 Q50.31 -7.817 51.197 -8.221 Q52.084 -8.624 52.729 -9.269 L74.981 -31.521 L81.754 -24.749 L59.663 -2.657 Q59.017 -2.012 58.614 -0.991 Q58.211 0.03 58.211 1.051 Q58.211 2.986 59.663 4.438 Q61.114 5.889 63.049 5.889 Q64.016 5.889 64.823 5.566 Q65.629 5.244 66.435 4.438 L88.688 -17.815 L95.46 -11.042 L73.207 11.21 Q72.401 12.016 72.079 12.984 Q71.756 13.951 71.756 14.758 Q71.756 17.015 73.046 18.305 Q74.336 19.595 76.594 19.595 Z M76.604 29.27 Q71.273 29.27 67.08 25.319 Q62.888 21.369 62.081 15.545 Q56.599 14.758 52.89 11.049 Q49.181 7.34 48.375 1.858 Q42.892 1.051 39.264 -2.738 Q35.636 -6.527 34.83 -11.849 Q28.864 -12.655 24.994 -16.686 Q21.124 -20.717 21.124 -26.361 Q21.124 -29.102 22.208 -31.852 Q23.292 -34.601 25.316 -36.681 L61.436 -72.801 L79.174 -55.064 Q80.464 -53.774 81.969 -53.048 Q83.474 -52.322 84.979 -52.322 Q87.075 -52.322 88.929 -54.177 Q90.784 -56.031 90.784 -58.152 Q90.784 -59.095 90.219 -60.304 Q89.655 -61.514 88.365 -62.804 L65.306 -85.862 Q63.21 -87.959 60.469 -89.007 Q57.727 -90.055 54.986 -90.055 Q52.299 -90.055 49.611 -89.007 Q46.924 -87.959 44.837 -85.886 L20.317 -61.352 Q18.06 -59.095 17.173 -56.596 Q16.286 -54.096 16.125 -50.952 Q15.964 -47.807 17.334 -44.824 Q18.705 -41.841 20.64 -39.422 L13.706 -32.489 Q10.481 -36.036 8.466 -41.035 Q6.45 -46.034 6.45 -51.194 Q6.45 -56.031 8.304 -60.466 Q10.159 -64.9 13.545 -68.286 L37.894 -92.635 Q41.441 -96.182 45.923 -97.876 Q50.405 -99.569 55.114 -99.569 Q59.824 -99.569 64.258 -97.876 Q68.692 -96.182 72.24 -92.635 L75.142 -89.732 L78.045 -92.635 Q81.593 -96.182 86.074 -97.876 Q90.556 -99.569 95.265 -99.569 Q99.975 -99.569 104.409 -97.876 Q108.844 -96.182 112.391 -92.635 L141.255 -63.771 Q144.803 -60.224 146.576 -55.703 Q148.35 -51.183 148.35 -46.512 Q148.35 -41.841 146.576 -37.407 Q144.803 -32.972 141.255 -29.425 L86.914 24.916 Q84.817 27.013 82.152 28.141 Q79.486 29.27 76.604 29.27 Z"/></g><g id="Light-L" transform="matrix(1 0 0 1 1082.77 1556)"><path d="M76.036 18.541 Q77.152 18.541 78.417 18.044 Q79.682 17.548 80.451 16.717 L133.118 -36.049 Q135.4 -38.331 136.635 -41.018 Q137.869 -43.706 137.869 -46.642 Q137.869 -49.631 136.635 -52.527 Q135.4 -55.423 133.118 -57.706 L106.14 -84.684 Q103.857 -86.966 101.147 -88.108 Q98.437 -89.249 95.448 -89.249 Q92.512 -89.249 89.794 -88.108 Q87.075 -86.966 84.855 -84.684 L80.34 -80.169 L93.091 -67.319 Q95.001 -65.309 96.396 -62.574 Q97.792 -59.839 97.792 -56.726 Q97.792 -51.281 93.717 -47.287 Q89.642 -43.292 84.259 -43.292 Q80.786 -43.292 78.343 -44.316 Q75.899 -45.339 73.878 -47.323 L61.87 -59.368 L33.118 -30.616 Q32.188 -29.686 31.741 -28.515 Q31.295 -27.345 31.295 -26.141 Q31.295 -23.794 32.821 -22.299 Q34.346 -20.804 36.637 -20.804 Q37.906 -20.804 39.072 -21.381 Q40.238 -21.958 41.007 -22.727 L62.453 -44.173 L67.613 -39.013 L46.266 -17.728 Q45.336 -16.736 44.89 -15.551 Q44.443 -14.367 44.443 -13.151 Q44.443 -10.968 46.049 -9.362 Q47.656 -7.755 49.839 -7.755 Q51.054 -7.755 52.22 -8.252 Q53.386 -8.748 54.155 -9.579 L76.346 -31.769 L81.506 -26.609 L59.414 -4.58 Q58.645 -3.749 58.118 -2.511 Q57.591 -1.273 57.591 -0.003 Q57.591 2.18 59.197 3.786 Q60.804 5.393 62.987 5.393 Q64.202 5.393 65.288 4.946 Q66.373 4.499 67.303 3.569 L89.494 -18.621 L94.654 -13.461 L72.463 8.729 Q71.533 9.659 71.086 10.906 Q70.64 12.153 70.64 13.207 Q70.64 15.651 72.147 17.095 Q73.654 18.541 76.036 18.541 Z M76.046 25.859 Q71.024 25.859 67.266 22.094 Q63.508 18.33 63.322 12.691 Q57.839 12.401 54.161 8.878 Q50.484 5.355 50.174 -0.437 Q44.443 -0.809 40.908 -4.413 Q37.373 -8.016 37.125 -13.585 Q31.531 -13.895 27.754 -17.368 Q23.977 -20.842 23.977 -26.299 Q23.977 -28.854 24.999 -31.418 Q26.021 -33.981 27.859 -35.875 L61.87 -69.886 L78.305 -53.451 Q79.533 -52.223 81.1 -51.467 Q82.667 -50.71 84.359 -50.71 Q86.641 -50.71 88.557 -52.595 Q90.474 -54.481 90.474 -56.85 Q90.474 -58.103 89.816 -59.436 Q89.159 -60.769 87.931 -62.059 L65.306 -84.684 Q63.024 -86.966 60.283 -88.108 Q57.541 -89.249 54.552 -89.249 Q51.616 -89.249 48.96 -88.108 Q46.304 -86.966 44.031 -84.707 L21.558 -62.221 Q19.176 -59.839 18.104 -57.061 Q17.031 -54.282 16.993 -50.828 Q16.894 -47.932 18.048 -45.197 Q19.201 -42.461 20.888 -40.229 L15.505 -34.908 Q13.024 -37.959 11.381 -42.275 Q9.737 -46.592 9.675 -51.07 Q9.613 -55.783 11.375 -60.031 Q13.136 -64.28 16.398 -67.542 L38.7 -89.844 Q42.061 -93.205 46.14 -94.836 Q50.219 -96.468 54.68 -96.468 Q59.142 -96.468 63.173 -94.836 Q67.204 -93.205 70.565 -89.844 L75.08 -85.329 L79.596 -89.844 Q82.957 -93.205 87.005 -94.836 Q91.052 -96.468 95.514 -96.468 Q99.975 -96.468 104.037 -94.836 Q108.099 -93.205 111.461 -89.844 L138.278 -63.027 Q141.639 -59.666 143.413 -55.362 Q145.187 -51.059 145.187 -46.636 Q145.187 -42.213 143.413 -38.182 Q141.639 -34.151 138.278 -30.789 L85.611 21.877 Q83.639 23.911 81.19 24.885 Q78.742 25.859 76.046 25.859 Z"/></g><g id="Thin-L" transform="matrix(1 0 0 1 787.282 1556)"><path d="M75.477 17.486 Q76.904 17.486 78.386 16.897 Q79.868 16.308 80.761 15.291 L131.754 -35.739 Q134.222 -38.207 135.642 -40.894 Q137.062 -43.582 137.062 -46.766 Q137.062 -50.003 135.642 -53.054 Q134.222 -56.106 131.754 -58.574 L106.822 -83.506 Q104.354 -85.974 101.674 -87.208 Q98.995 -88.442 95.758 -88.442 Q92.574 -88.442 89.824 -87.208 Q87.075 -85.974 84.731 -83.506 L78.603 -77.378 L91.044 -64.9 Q92.768 -63.139 93.947 -60.652 Q95.125 -58.165 95.125 -55.485 Q95.125 -50.722 91.733 -47.411 Q88.34 -44.099 83.701 -44.099 Q80.786 -44.099 78.56 -44.936 Q76.333 -45.773 74.499 -47.509 L62.305 -59.802 L33.987 -31.484 Q32.932 -30.43 32.362 -28.98 Q31.791 -27.531 31.791 -26.141 Q31.791 -23.484 33.472 -21.865 Q35.153 -20.246 37.691 -20.246 Q39.209 -20.246 40.654 -20.916 Q42.099 -21.586 42.992 -22.479 L63.632 -43.119 L67.179 -39.571 L46.576 -19.093 Q45.522 -17.914 44.952 -16.513 Q44.381 -15.111 44.381 -13.647 Q44.381 -11.216 46.142 -9.455 Q47.904 -7.693 50.335 -7.693 Q51.798 -7.693 53.243 -8.283 Q54.689 -8.872 55.582 -9.889 L77.71 -32.017 L81.258 -28.47 L59.166 -6.503 Q58.273 -5.486 57.622 -4.03 Q56.971 -2.575 56.971 -1.057 Q56.971 1.374 58.732 3.135 Q60.494 4.896 62.925 4.896 Q64.388 4.896 65.753 4.326 Q67.117 3.755 68.172 2.701 L90.3 -19.427 L93.847 -15.88 L71.719 6.248 Q70.665 7.303 70.094 8.828 Q69.524 10.354 69.524 11.657 Q69.524 14.286 71.248 15.886 Q72.972 17.486 75.477 17.486 Z M75.488 22.448 Q70.776 22.448 67.452 18.869 Q64.128 15.291 64.562 9.839 Q59.08 10.044 55.433 6.707 Q51.786 3.371 51.972 -2.732 Q45.993 -2.67 42.551 -6.087 Q39.109 -9.504 39.419 -15.322 Q34.197 -15.136 30.513 -18.051 Q26.829 -20.966 26.829 -26.237 Q26.829 -28.606 27.79 -30.983 Q28.75 -33.36 30.402 -35.069 L62.305 -66.971 L77.437 -51.839 Q78.603 -50.673 80.232 -49.885 Q81.861 -49.097 83.738 -49.097 Q86.207 -49.097 88.185 -51.014 Q90.164 -52.93 90.164 -55.547 Q90.164 -57.11 89.413 -58.568 Q88.663 -60.025 87.497 -61.315 L65.306 -83.506 Q62.838 -85.974 60.097 -87.208 Q57.355 -88.442 54.118 -88.442 Q50.934 -88.442 48.309 -87.208 Q45.683 -85.974 43.225 -83.529 L22.798 -63.089 Q20.293 -60.583 19.034 -57.526 Q17.775 -54.468 17.862 -50.704 Q17.824 -48.056 18.761 -45.569 Q19.697 -43.082 21.136 -41.035 L17.303 -37.326 Q15.567 -39.881 14.295 -43.516 Q13.024 -47.15 12.9 -50.946 Q12.776 -55.535 14.444 -59.597 Q16.113 -63.66 19.251 -66.798 L39.506 -87.053 Q42.682 -90.229 46.357 -91.798 Q50.032 -93.367 54.246 -93.367 Q58.459 -93.367 62.088 -91.798 Q65.716 -90.229 68.891 -87.053 L75.018 -80.926 L81.146 -87.053 Q84.321 -90.229 87.935 -91.798 Q91.548 -93.367 95.762 -93.367 Q99.975 -93.367 103.665 -91.798 Q107.355 -90.229 110.531 -87.053 L135.301 -62.283 Q138.477 -59.107 140.25 -55.021 Q142.024 -50.935 142.024 -46.76 Q142.024 -42.585 140.25 -38.957 Q138.477 -35.329 135.301 -32.154 L84.309 18.838 Q82.461 20.811 80.229 21.629 Q77.997 22.448 75.488 22.448 Z"/></g><g id="Ultralight-L" transform="matrix(1 0 0 1 491.205 1556)"><path d="M75.142 16.854 Q76.755 16.854 78.368 16.209 Q79.98 15.564 80.948 14.435 L130.935 -35.552 Q133.515 -38.132 135.047 -40.82 Q136.579 -43.507 136.579 -46.84 Q136.579 -50.226 135.047 -53.371 Q133.515 -56.515 130.935 -59.095 L107.231 -82.799 Q104.651 -85.379 101.991 -86.669 Q99.33 -87.959 95.944 -87.959 Q92.611 -87.959 89.843 -86.669 Q87.075 -85.379 84.656 -82.799 L77.561 -75.704 L89.816 -63.449 Q91.429 -61.836 92.477 -59.498 Q93.525 -57.16 93.525 -54.741 Q93.525 -50.387 90.542 -47.485 Q87.559 -44.582 83.366 -44.582 Q80.786 -44.582 78.69 -45.308 Q76.594 -46.034 74.871 -47.621 L62.565 -60.062 L34.508 -32.005 Q33.379 -30.876 32.734 -29.26 Q32.089 -27.643 32.089 -26.141 Q32.089 -23.297 33.863 -21.604 Q35.636 -19.911 38.324 -19.911 Q39.99 -19.911 41.602 -20.637 Q43.215 -21.362 44.183 -22.33 L64.339 -42.486 L66.919 -39.906 L46.763 -19.911 Q45.634 -18.621 44.989 -17.089 Q44.344 -15.557 44.344 -13.945 Q44.344 -11.365 46.198 -9.511 Q48.053 -7.656 50.633 -7.656 Q52.245 -7.656 53.858 -8.301 Q55.47 -8.946 56.438 -10.075 L78.529 -32.166 L81.109 -29.586 L59.017 -7.656 Q58.05 -6.527 57.324 -4.942 Q56.599 -3.356 56.599 -1.69 Q56.599 0.89 58.453 2.744 Q60.308 4.599 62.888 4.599 Q64.5 4.599 66.032 3.954 Q67.564 3.309 68.692 2.18 L90.784 -19.911 L93.364 -17.331 L71.273 4.76 Q70.144 5.889 69.499 7.582 Q68.854 9.275 68.854 10.726 Q68.854 13.468 70.708 15.161 Q72.562 16.854 75.142 16.854 Z M75.153 20.401 Q70.627 20.401 67.564 16.934 Q64.5 13.468 65.306 8.127 Q59.824 8.63 56.196 5.405 Q52.568 2.18 53.051 -4.109 Q46.924 -3.786 43.538 -7.092 Q40.151 -10.397 40.796 -16.364 Q35.797 -15.88 32.169 -18.46 Q28.541 -21.04 28.541 -26.2 Q28.541 -28.457 29.464 -30.723 Q30.387 -32.988 31.928 -34.585 L62.565 -65.222 L76.916 -50.871 Q78.045 -49.742 79.711 -48.936 Q81.378 -48.13 83.366 -48.13 Q85.946 -48.13 87.962 -50.065 Q89.978 -52 89.978 -54.766 Q89.978 -56.515 89.171 -58.047 Q88.365 -59.579 87.236 -60.869 L65.306 -82.799 Q62.726 -85.379 59.985 -86.669 Q57.244 -87.959 53.858 -87.959 Q50.525 -87.959 47.918 -86.669 Q45.311 -85.379 42.741 -82.822 L23.543 -63.61 Q20.963 -61.03 19.592 -57.805 Q18.221 -54.58 18.383 -50.629 Q18.383 -48.13 19.189 -45.792 Q19.995 -43.454 21.285 -41.519 L18.383 -38.777 Q17.093 -41.035 16.044 -44.26 Q14.996 -47.485 14.835 -50.871 Q14.674 -55.386 16.286 -59.337 Q17.899 -63.287 20.963 -66.351 L39.99 -85.379 Q43.054 -88.442 46.487 -89.974 Q49.921 -91.506 53.985 -91.506 Q58.05 -91.506 61.436 -89.974 Q64.823 -88.442 67.886 -85.379 L74.981 -78.284 L82.076 -85.379 Q85.14 -88.442 88.493 -89.974 Q91.846 -91.506 95.91 -91.506 Q99.975 -91.506 103.442 -89.974 Q106.909 -88.442 109.972 -85.379 L133.515 -61.836 Q136.579 -58.772 138.352 -54.817 Q140.126 -50.861 140.126 -46.835 Q140.126 -42.809 138.352 -39.422 Q136.579 -36.036 133.515 -32.972 L83.528 17.015 Q81.754 18.95 79.652 19.676 Q77.551 20.401 75.153 20.401 Z"/></g><g id="Bold-M" transform="matrix(1 0 0 1 2281.8 1126)"><path d="M59 4.77 Q59.5 4.77 59.938 4.645 Q60.375 4.52 60.875 4.02 L101.25 -36.355 Q103.125 -38.23 104.125 -40.73 Q105.125 -43.23 105.125 -45.98 Q105.125 -48.73 104.125 -51.292 Q103.125 -53.855 101.25 -55.73 L84.625 -72.355 Q83 -73.98 81 -74.605 Q79 -75.23 76.75 -75.23 Q74.625 -75.23 72.562 -74.605 Q70.5 -73.98 69.125 -72.855 L68.875 -72.48 L77.125 -64.23 Q79.625 -61.73 80.812 -58.792 Q82 -55.855 82 -52.355 Q82 -45.605 77.312 -40.917 Q72.625 -36.23 65.875 -36.23 Q62.5 -36.23 59.5 -37.417 Q56.5 -38.605 54 -41.105 L45 -50.105 L26 -31.23 Q25.625 -30.855 25.438 -30.355 Q25.25 -29.855 25.25 -29.355 Q25.25 -28.355 25.938 -27.667 Q26.625 -26.98 27.625 -26.98 Q28.125 -26.98 28.688 -27.23 Q29.25 -27.48 29.5 -27.73 L44.875 -42.98 L51.875 -35.98 L36.625 -20.73 Q36.25 -20.355 36.062 -19.792 Q35.875 -19.23 35.875 -18.73 Q35.875 -17.73 36.5 -17.105 Q37.125 -16.48 38.125 -16.48 Q38.625 -16.48 39.188 -16.73 Q39.75 -16.98 40.125 -17.23 L55.125 -32.23 L62.125 -25.23 L46.875 -9.98 Q46.625 -9.73 46.375 -9.167 Q46.125 -8.605 46.125 -8.105 Q46.125 -7.105 46.812 -6.417 Q47.5 -5.73 48.5 -5.73 Q49 -5.73 49.5 -5.917 Q50 -6.105 50.375 -6.48 L65.625 -21.73 L72.625 -14.73 L57.375 0.52 Q57 0.895 56.812 1.458 Q56.625 2.02 56.625 2.52 Q56.625 3.52 57.312 4.145 Q58 4.77 59 4.77 Z M59 18.645 Q53.625 18.645 49.312 15.458 Q45 12.27 43.625 7.145 Q39.875 6.27 36.938 3.27 Q34 0.27 33.125 -3.48 Q29.5 -4.48 26.625 -7.292 Q23.75 -10.105 22.75 -13.73 Q17.875 -14.98 14.562 -19.355 Q11.25 -23.73 11.25 -29.355 Q11.25 -32.48 12.5 -35.48 Q13.75 -38.48 16 -40.73 L45 -69.73 L63.75 -50.98 Q64.25 -50.48 64.75 -50.23 Q65.25 -49.98 65.875 -49.98 Q66.875 -49.98 67.5 -50.667 Q68.125 -51.355 68.125 -52.355 Q68.125 -52.855 67.875 -53.542 Q67.625 -54.23 67.25 -54.48 L49 -72.73 Q47.75 -74.105 45.5 -74.667 Q43.25 -75.23 40.75 -75.23 Q38.25 -75.23 36.25 -74.667 Q34.25 -74.105 32.875 -72.73 L17 -56.855 Q16.25 -56.105 15.688 -54.48 Q15.125 -52.855 15 -50.73 Q14.875 -49.98 15.125 -49.167 Q15.375 -48.355 15.625 -47.48 L5.625 -37.48 Q3.625 -39.605 2.312 -43.417 Q1 -47.23 1.125 -50.73 Q1.25 -55.605 2.688 -59.542 Q4.125 -63.48 7.25 -66.605 L23 -82.48 Q26.375 -85.855 31.188 -87.48 Q36 -89.105 40.75 -89.105 Q45.875 -89.105 50.5 -87.48 Q55.125 -85.855 58.375 -82.855 L58.75 -82.605 L59 -82.855 Q62.125 -85.605 66.938 -87.355 Q71.75 -89.105 76.75 -89.105 Q81.5 -89.105 86.25 -87.23 Q91 -85.355 94.375 -81.98 L112 -64.48 Q115.375 -61.105 117.125 -56.042 Q118.875 -50.98 118.875 -45.98 Q118.875 -40.855 116.938 -35.605 Q115 -30.355 111.375 -26.73 L70.625 13.895 Q68.25 16.27 65.312 17.458 Q62.375 18.645 59 18.645 Z"/></g><g id="Semibold-M" transform="matrix(1 0 0 1 1985.97 1126)"><path d="M59.163 4.77 Q59.663 4.77 60.128 4.591 Q60.592 4.411 60.984 4.02 L101.63 -36.627 Q103.342 -38.339 104.207 -40.567 Q105.071 -42.795 105.071 -45.165 Q105.071 -47.589 104.207 -49.825 Q103.342 -52.062 101.63 -53.719 L82.995 -72.355 Q81.478 -73.926 79.56 -74.578 Q77.641 -75.23 75.5 -75.23 Q73.484 -75.23 71.503 -74.578 Q69.522 -73.926 68.093 -72.638 L67.353 -71.828 L76.038 -63.089 Q78.266 -60.915 79.318 -58.276 Q80.37 -55.638 80.37 -52.572 Q80.37 -46.474 76.171 -42.276 Q71.973 -38.078 65.875 -38.078 Q62.88 -38.078 60.179 -39.129 Q57.478 -40.181 55.304 -42.355 L46.141 -51.464 L25.891 -31.284 Q25.516 -30.909 25.329 -30.436 Q25.141 -29.964 25.141 -29.464 Q25.141 -28.464 25.856 -27.722 Q26.571 -26.98 27.571 -26.98 Q28.071 -26.98 28.606 -27.23 Q29.141 -27.48 29.391 -27.73 L45.473 -43.741 L52.473 -36.741 L36.516 -20.73 Q36.141 -20.355 35.954 -19.847 Q35.766 -19.339 35.766 -18.839 Q35.766 -17.839 36.446 -17.159 Q37.125 -16.48 38.125 -16.48 Q38.625 -16.48 39.16 -16.73 Q39.696 -16.98 40.016 -17.23 L55.886 -33.045 L62.886 -26.045 L46.929 -10.034 Q46.625 -9.784 46.402 -9.249 Q46.179 -8.714 46.179 -8.214 Q46.179 -7.214 46.894 -6.499 Q47.609 -5.784 48.609 -5.784 Q49.109 -5.784 49.581 -5.972 Q50.054 -6.159 50.429 -6.534 L66.44 -22.491 L73.44 -15.491 L57.429 0.52 Q57.054 0.895 56.867 1.403 Q56.679 1.911 56.679 2.411 Q56.679 3.411 57.421 4.091 Q58.163 4.77 59.163 4.77 Z M59.109 16.96 Q54.06 16.96 50.073 13.827 Q46.087 10.694 45.038 5.786 Q41.071 5.02 38.16 2.074 Q35.25 -0.871 34.484 -4.839 Q30.587 -5.676 27.739 -8.542 Q24.891 -11.409 24.054 -15.252 Q19.234 -16.23 16.057 -20.224 Q12.88 -24.219 12.88 -29.464 Q12.88 -32.317 13.995 -35.018 Q15.109 -37.719 17.141 -39.752 L46.141 -68.697 L63.859 -50.98 Q64.25 -50.534 64.75 -50.311 Q65.25 -50.089 65.821 -50.089 Q66.875 -50.089 67.554 -50.776 Q68.234 -51.464 68.234 -52.518 Q68.234 -53.018 68.011 -53.624 Q67.788 -54.23 67.413 -54.48 L49.326 -72.567 Q48.022 -73.996 45.962 -74.613 Q43.902 -75.23 41.62 -75.23 Q39.391 -75.23 37.446 -74.613 Q35.5 -73.996 34.071 -72.567 L17.435 -55.877 Q16.522 -54.964 15.878 -53.393 Q15.234 -51.822 15.054 -49.969 Q14.875 -48.893 15.125 -47.754 Q15.375 -46.616 15.842 -45.524 L7.038 -36.719 Q4.984 -39.17 3.807 -42.82 Q2.63 -46.469 2.81 -49.969 Q2.989 -54.246 4.454 -57.912 Q5.918 -61.578 8.826 -64.486 L25.391 -81.121 Q28.603 -84.279 32.926 -85.85 Q37.25 -87.42 41.62 -87.42 Q46.201 -87.42 50.419 -85.85 Q54.636 -84.279 57.723 -81.333 L58.533 -80.594 L59.272 -81.333 Q62.342 -84.138 66.666 -85.779 Q70.989 -87.42 75.5 -87.42 Q79.87 -87.42 84.158 -85.708 Q88.446 -83.996 91.603 -80.839 L110.75 -61.763 Q113.908 -58.605 115.549 -54.113 Q117.19 -49.621 117.19 -45.11 Q117.19 -40.529 115.443 -35.958 Q113.696 -31.387 110.397 -28.089 L69.538 12.645 Q67.435 14.748 64.769 15.854 Q62.103 16.96 59.109 16.96 Z"/></g><g id="Medium-M" transform="matrix(1 0 0 1 1689.91 1126)"><path d="M59.285 4.77 Q59.785 4.77 60.27 4.55 Q60.755 4.33 61.065 4.02 L101.916 -36.83 Q103.505 -38.42 104.268 -40.445 Q105.03 -42.469 105.03 -44.553 Q105.03 -46.733 104.268 -48.725 Q103.505 -50.716 101.916 -52.211 L81.772 -72.355 Q80.337 -73.885 78.48 -74.557 Q76.622 -75.23 74.562 -75.23 Q72.628 -75.23 70.708 -74.557 Q68.788 -73.885 67.318 -72.475 L66.212 -71.339 L75.223 -62.233 Q77.247 -60.303 78.197 -57.889 Q79.147 -55.475 79.147 -52.735 Q79.147 -47.127 75.315 -43.295 Q71.484 -39.464 65.875 -39.464 Q63.166 -39.464 60.689 -40.413 Q58.212 -41.363 56.283 -43.292 L46.997 -52.483 L25.81 -31.325 Q25.435 -30.95 25.247 -30.498 Q25.06 -30.045 25.06 -29.545 Q25.06 -28.545 25.795 -27.763 Q26.53 -26.98 27.53 -26.98 Q28.03 -26.98 28.545 -27.23 Q29.06 -27.48 29.31 -27.73 L45.921 -44.311 L52.921 -37.311 L36.435 -20.73 Q36.06 -20.355 35.872 -19.888 Q35.685 -19.42 35.685 -18.92 Q35.685 -17.92 36.405 -17.2 Q37.125 -16.48 38.125 -16.48 Q38.625 -16.48 39.14 -16.73 Q39.655 -16.98 39.935 -17.23 L56.456 -33.657 L63.456 -26.657 L46.97 -10.075 Q46.625 -9.825 46.422 -9.31 Q46.22 -8.795 46.22 -8.295 Q46.22 -7.295 46.955 -6.56 Q47.69 -5.825 48.69 -5.825 Q49.19 -5.825 49.643 -6.013 Q50.095 -6.2 50.47 -6.575 L67.052 -23.061 L74.052 -16.061 L57.47 0.52 Q57.095 0.895 56.908 1.362 Q56.72 1.83 56.72 2.33 Q56.72 3.33 57.503 4.05 Q58.285 4.77 59.285 4.77 Z M59.19 15.697 Q54.386 15.697 50.644 12.604 Q46.902 9.512 46.098 4.767 Q41.967 4.083 39.077 1.178 Q36.188 -1.727 35.503 -5.858 Q31.402 -6.572 28.575 -9.48 Q25.747 -12.388 25.033 -16.393 Q20.253 -17.167 17.178 -20.877 Q14.103 -24.586 14.103 -29.545 Q14.103 -32.195 15.116 -34.672 Q16.128 -37.148 17.997 -39.018 L46.997 -67.923 L63.94 -50.98 Q64.25 -50.575 64.75 -50.373 Q65.25 -50.17 65.78 -50.17 Q66.875 -50.17 67.595 -50.858 Q68.315 -51.545 68.315 -52.64 Q68.315 -53.14 68.113 -53.685 Q67.91 -54.23 67.535 -54.48 L49.571 -72.445 Q48.225 -73.915 46.308 -74.572 Q44.391 -75.23 42.272 -75.23 Q40.247 -75.23 38.342 -74.572 Q36.438 -73.915 34.967 -72.445 L17.761 -55.143 Q16.726 -54.108 16.02 -52.578 Q15.315 -51.048 15.095 -49.398 Q14.875 -48.078 15.125 -46.695 Q15.375 -45.311 16.005 -44.056 L8.098 -36.148 Q6.003 -38.844 4.928 -42.371 Q3.853 -45.898 4.073 -49.398 Q4.293 -53.227 5.779 -56.689 Q7.263 -60.151 10.008 -62.896 L27.185 -80.102 Q30.274 -83.097 34.231 -84.627 Q38.188 -86.157 42.272 -86.157 Q46.446 -86.157 50.357 -84.627 Q54.269 -83.097 57.234 -80.192 L58.37 -79.086 L59.475 -80.192 Q62.505 -83.037 66.462 -84.597 Q70.418 -86.157 74.562 -86.157 Q78.647 -86.157 82.588 -84.567 Q86.53 -82.977 89.525 -79.983 L109.812 -59.725 Q112.807 -56.73 114.367 -52.666 Q115.927 -48.602 115.927 -44.458 Q115.927 -40.284 114.322 -36.223 Q112.717 -32.162 109.663 -29.108 L68.723 11.708 Q66.823 13.607 64.361 14.652 Q61.9 15.697 59.19 15.697 Z"/></g><g id="Regular-M" transform="matrix(1 0 0 1 1394.06 1126)"><path d="M59.375 4.77 Q59.875 4.77 60.375 4.52 Q60.875 4.27 61.125 4.02 L102.125 -36.98 Q103.625 -38.48 104.312 -40.355 Q105 -42.23 105 -44.105 Q105 -46.105 104.312 -47.917 Q103.625 -49.73 102.125 -51.105 L80.875 -72.355 Q79.5 -73.855 77.688 -74.542 Q75.875 -75.23 73.875 -75.23 Q72 -75.23 70.125 -74.542 Q68.25 -73.855 66.75 -72.355 L65.375 -70.98 L74.625 -61.605 Q76.5 -59.855 77.375 -57.605 Q78.25 -55.355 78.25 -52.855 Q78.25 -47.605 74.688 -44.042 Q71.125 -40.48 65.875 -40.48 Q63.375 -40.48 61.062 -41.355 Q58.75 -42.23 57 -43.98 L47.625 -53.23 L25.75 -31.355 Q25.375 -30.98 25.188 -30.542 Q25 -30.105 25 -29.605 Q25 -28.605 25.75 -27.792 Q26.5 -26.98 27.5 -26.98 Q28 -26.98 28.5 -27.23 Q29 -27.48 29.25 -27.73 L46.25 -44.73 L53.25 -37.73 L36.375 -20.73 Q36 -20.355 35.812 -19.917 Q35.625 -19.48 35.625 -18.98 Q35.625 -17.98 36.375 -17.23 Q37.125 -16.48 38.125 -16.48 Q38.625 -16.48 39.125 -16.73 Q39.625 -16.98 39.875 -17.23 L56.875 -34.105 L63.875 -27.105 L47 -10.105 Q46.625 -9.855 46.438 -9.355 Q46.25 -8.855 46.25 -8.355 Q46.25 -7.355 47 -6.605 Q47.75 -5.855 48.75 -5.855 Q49.25 -5.855 49.688 -6.042 Q50.125 -6.23 50.5 -6.605 L67.5 -23.48 L74.5 -16.48 L57.5 0.52 Q57.125 0.895 56.938 1.333 Q56.75 1.77 56.75 2.27 Q56.75 3.27 57.562 4.02 Q58.375 4.77 59.375 4.77 Z M59.25 14.77 Q54.625 14.77 51.062 11.708 Q47.5 8.645 46.875 4.02 Q42.625 3.395 39.75 0.52 Q36.875 -2.355 36.25 -6.605 Q32 -7.23 29.188 -10.167 Q26.375 -13.105 25.75 -17.23 Q21 -17.855 18 -21.355 Q15 -24.855 15 -29.605 Q15 -32.105 15.938 -34.417 Q16.875 -36.73 18.625 -38.48 L47.625 -67.355 L64 -50.98 Q64.25 -50.605 64.75 -50.417 Q65.25 -50.23 65.75 -50.23 Q66.875 -50.23 67.625 -50.917 Q68.375 -51.605 68.375 -52.73 Q68.375 -53.23 68.188 -53.73 Q68 -54.23 67.625 -54.48 L49.75 -72.355 Q48.375 -73.855 46.562 -74.542 Q44.75 -75.23 42.75 -75.23 Q40.875 -75.23 39 -74.542 Q37.125 -73.855 35.625 -72.355 L18 -54.605 Q16.875 -53.48 16.125 -51.98 Q15.375 -50.48 15.125 -48.98 Q14.875 -47.48 15.125 -45.917 Q15.375 -44.355 16.125 -42.98 L8.875 -35.73 Q6.75 -38.605 5.75 -42.042 Q4.75 -45.48 5 -48.98 Q5.25 -52.48 6.75 -55.792 Q8.25 -59.105 10.875 -61.73 L28.5 -79.355 Q31.5 -82.23 35.188 -83.73 Q38.875 -85.23 42.75 -85.23 Q46.625 -85.23 50.312 -83.73 Q54 -82.23 56.875 -79.355 L58.25 -77.98 L59.625 -79.355 Q62.625 -82.23 66.312 -83.73 Q70 -85.23 73.875 -85.23 Q77.75 -85.23 81.438 -83.73 Q85.125 -82.23 88 -79.355 L109.125 -58.23 Q112 -55.355 113.5 -51.605 Q115 -47.855 115 -43.98 Q115 -40.105 113.5 -36.417 Q112 -32.73 109.125 -29.855 L68.125 11.02 Q66.375 12.77 64.062 13.77 Q61.75 14.77 59.25 14.77 Z"/></g><g id="Light-M" transform="matrix(1 0 0 1 1098.18 1126)"><path d="M58.942 4.626 Q59.683 4.626 60.447 4.28 Q61.212 3.933 61.654 3.491 L101.644 -36.499 Q103.337 -38.191 104.192 -40.115 Q105.048 -42.038 105.048 -44.153 Q105.048 -46.345 104.192 -48.374 Q103.337 -50.403 101.644 -52.018 L81.644 -72.018 Q80.029 -73.711 78.144 -74.494 Q76.26 -75.278 74.067 -75.278 Q71.952 -75.278 70.005 -74.494 Q68.058 -73.711 66.413 -72.018 L63.548 -69.153 L72.798 -59.826 Q74.481 -58.22 75.284 -56.163 Q76.086 -54.105 76.086 -51.893 Q76.086 -47.316 73.029 -44.259 Q69.971 -41.201 65.394 -41.201 Q63.183 -41.201 61.111 -41.932 Q59.038 -42.663 57.433 -44.268 L47.962 -53.663 L26.231 -31.932 Q25.663 -31.365 25.38 -30.663 Q25.096 -29.961 25.096 -29.22 Q25.096 -27.836 26.038 -26.855 Q26.981 -25.874 28.366 -25.874 Q29.106 -25.874 29.87 -26.22 Q30.635 -26.566 31.077 -27.009 L47.5 -43.432 L52.769 -38.163 L36.423 -21.74 Q35.856 -21.172 35.572 -20.47 Q35.288 -19.768 35.288 -19.028 Q35.288 -17.691 36.255 -16.725 Q37.221 -15.759 38.558 -15.759 Q39.298 -15.759 40.063 -16.105 Q40.827 -16.451 41.269 -16.893 L58.269 -33.816 L63.538 -28.547 L46.615 -11.547 Q46.096 -11.105 45.788 -10.341 Q45.481 -9.576 45.481 -8.836 Q45.481 -7.499 46.447 -6.533 Q47.413 -5.566 48.75 -5.566 Q49.49 -5.566 50.192 -5.85 Q50.894 -6.134 51.462 -6.701 L68.462 -23.624 L73.731 -18.355 L56.731 -1.355 Q56.163 -0.788 55.88 -0.038 Q55.596 0.712 55.596 1.405 Q55.596 2.789 56.625 3.708 Q57.654 4.626 58.942 4.626 Z M58.865 12.126 Q54.625 12.126 51.471 9.183 Q48.317 6.241 48.173 1.856 Q43.923 1.568 41.072 -1.163 Q38.221 -3.894 37.981 -8.336 Q33.539 -8.624 30.798 -11.442 Q28.058 -14.259 27.866 -18.528 Q23.404 -18.817 20.5 -21.764 Q17.596 -24.711 17.596 -29.22 Q17.596 -31.432 18.438 -33.552 Q19.279 -35.672 20.885 -37.278 L47.962 -64.278 L62.606 -49.634 Q63.048 -49.114 63.764 -48.807 Q64.481 -48.499 65.317 -48.499 Q66.683 -48.499 67.673 -49.403 Q68.663 -50.307 68.663 -51.768 Q68.663 -52.605 68.356 -53.321 Q68.048 -54.038 67.529 -54.48 L49.99 -72.018 Q48.375 -73.711 46.466 -74.494 Q44.558 -75.278 42.365 -75.278 Q40.25 -75.278 38.351 -74.494 Q36.452 -73.711 34.76 -72.018 L18.337 -55.518 Q16.971 -54.153 16.101 -52.292 Q15.231 -50.432 15.077 -48.499 Q14.923 -46.903 15.221 -45.34 Q15.519 -43.778 16.269 -42.403 L10.75 -36.884 Q9.058 -39.326 8.202 -42.355 Q7.346 -45.384 7.5 -48.499 Q7.654 -51.951 9.058 -55.167 Q10.462 -58.384 12.991 -60.913 L29.366 -77.287 Q32.173 -80.018 35.476 -81.398 Q38.779 -82.778 42.413 -82.778 Q46.048 -82.778 49.327 -81.398 Q52.606 -80.018 55.336 -77.287 L58.202 -74.422 L61.067 -77.287 Q63.875 -80.018 67.154 -81.398 Q70.433 -82.778 74.067 -82.778 Q77.702 -82.778 81.005 -81.398 Q84.308 -80.018 87.038 -77.287 L106.913 -57.413 Q109.644 -54.682 111.096 -51.196 Q112.548 -47.711 112.548 -44.076 Q112.548 -40.442 111.096 -37.163 Q109.644 -33.884 106.913 -31.153 L66.923 8.76 Q65.269 10.414 63.197 11.27 Q61.125 12.126 58.865 12.126 Z"/></g><g id="Thin-M" transform="matrix(1 0 0 1 802.565 1126)"><path d="M58.51 4.482 Q59.49 4.482 60.519 4.039 Q61.548 3.597 62.183 2.962 L101.163 -36.018 Q103.048 -37.903 104.072 -39.874 Q105.096 -41.845 105.096 -44.201 Q105.096 -46.586 104.072 -48.831 Q103.048 -51.076 101.163 -52.932 L82.413 -71.682 Q80.558 -73.566 78.601 -74.446 Q76.644 -75.326 74.26 -75.326 Q71.904 -75.326 69.885 -74.446 Q67.865 -73.566 66.077 -71.682 L61.721 -67.326 L70.971 -58.047 Q72.462 -56.586 73.192 -54.72 Q73.923 -52.855 73.923 -50.932 Q73.923 -47.028 71.37 -44.475 Q68.817 -41.922 64.913 -41.922 Q62.99 -41.922 61.159 -42.509 Q59.327 -43.095 57.865 -44.557 L48.298 -54.095 L26.712 -32.509 Q25.952 -31.749 25.572 -30.783 Q25.192 -29.816 25.192 -28.836 Q25.192 -27.066 26.327 -25.917 Q27.462 -24.768 29.231 -24.768 Q30.212 -24.768 31.24 -25.211 Q32.269 -25.653 32.904 -26.288 L48.75 -42.134 L52.288 -38.595 L36.471 -22.749 Q35.712 -21.99 35.332 -21.023 Q34.952 -20.057 34.952 -19.076 Q34.952 -17.403 36.135 -16.22 Q37.317 -15.038 38.99 -15.038 Q39.971 -15.038 41 -15.48 Q42.029 -15.922 42.663 -16.557 L59.663 -33.528 L63.202 -29.99 L46.231 -12.99 Q45.567 -12.355 45.139 -11.326 Q44.712 -10.297 44.712 -9.316 Q44.712 -7.643 45.894 -6.461 Q47.077 -5.278 48.75 -5.278 Q49.731 -5.278 50.697 -5.658 Q51.663 -6.038 52.423 -6.797 L69.423 -23.768 L72.962 -20.23 L55.962 -3.23 Q55.202 -2.47 54.822 -1.408 Q54.442 -0.345 54.442 0.539 Q54.442 2.309 55.688 3.395 Q56.933 4.482 58.51 4.482 Z M58.481 9.482 Q54.625 9.482 51.88 6.66 Q49.135 3.837 49.471 -0.307 Q45.221 -0.259 42.394 -2.845 Q39.567 -5.432 39.712 -10.066 Q35.077 -10.018 32.409 -12.715 Q29.74 -15.413 29.981 -19.826 Q25.808 -19.778 23 -22.172 Q20.192 -24.566 20.192 -28.836 Q20.192 -30.759 20.938 -32.687 Q21.683 -34.615 23.144 -36.076 L48.298 -61.201 L61.212 -48.288 Q61.846 -47.624 62.779 -47.196 Q63.712 -46.768 64.885 -46.768 Q66.49 -46.768 67.721 -47.889 Q68.952 -49.009 68.952 -50.807 Q68.952 -51.98 68.524 -52.913 Q68.096 -53.845 67.433 -54.48 L50.231 -71.682 Q48.375 -73.566 46.37 -74.446 Q44.365 -75.326 41.981 -75.326 Q39.625 -75.326 37.702 -74.446 Q35.779 -73.566 33.894 -71.682 L18.673 -56.432 Q17.067 -54.826 16.077 -52.605 Q15.086 -50.384 15.029 -48.018 Q14.971 -46.326 15.317 -44.764 Q15.664 -43.201 16.413 -41.826 L12.625 -38.038 Q11.365 -40.047 10.654 -42.667 Q9.942 -45.288 10 -48.018 Q10.058 -51.422 11.365 -54.542 Q12.673 -57.663 15.106 -60.095 L30.231 -75.22 Q32.846 -77.807 35.764 -79.067 Q38.683 -80.326 42.077 -80.326 Q45.471 -80.326 48.341 -79.067 Q51.212 -77.807 53.798 -75.22 L58.154 -70.865 L62.51 -75.22 Q65.125 -77.807 67.995 -79.067 Q70.865 -80.326 74.26 -80.326 Q77.654 -80.326 80.572 -79.067 Q83.49 -77.807 86.077 -75.22 L104.702 -56.595 Q107.288 -54.009 108.692 -50.788 Q110.096 -47.566 110.096 -44.172 Q110.096 -40.778 108.692 -37.908 Q107.288 -35.038 104.702 -32.451 L65.721 6.501 Q64.163 8.059 62.332 8.77 Q60.5 9.482 58.481 9.482 Z"/></g><g id="Ultralight-M" transform="matrix(1 0 0 1 506.415 1126)"><path d="M58.25 4.395 Q59.375 4.395 60.562 3.895 Q61.75 3.395 62.5 2.645 L100.875 -35.73 Q102.875 -37.73 104 -39.73 Q105.125 -41.73 105.125 -44.23 Q105.125 -46.73 104 -49.105 Q102.875 -51.48 100.875 -53.48 L82.875 -71.48 Q80.875 -73.48 78.875 -74.417 Q76.875 -75.355 74.375 -75.355 Q71.875 -75.355 69.812 -74.417 Q67.75 -73.48 65.875 -71.48 L60.625 -66.23 L69.875 -56.98 Q71.25 -55.605 71.938 -53.855 Q72.625 -52.105 72.625 -50.355 Q72.625 -46.855 70.375 -44.605 Q68.125 -42.355 64.625 -42.355 Q62.875 -42.355 61.188 -42.855 Q59.5 -43.355 58.125 -44.73 L48.5 -54.355 L27 -32.855 Q26.125 -31.98 25.688 -30.855 Q25.25 -29.73 25.25 -28.605 Q25.25 -26.605 26.5 -25.355 Q27.75 -24.105 29.75 -24.105 Q30.875 -24.105 32.062 -24.605 Q33.25 -25.105 34 -25.855 L49.5 -41.355 L52 -38.855 L36.5 -23.355 Q35.625 -22.48 35.188 -21.355 Q34.75 -20.23 34.75 -19.105 Q34.75 -17.23 36.062 -15.917 Q37.375 -14.605 39.25 -14.605 Q40.375 -14.605 41.562 -15.105 Q42.75 -15.605 43.5 -16.355 L60.5 -33.355 L63 -30.855 L46 -13.855 Q45.25 -13.105 44.75 -11.917 Q44.25 -10.73 44.25 -9.605 Q44.25 -7.73 45.562 -6.417 Q46.875 -5.105 48.75 -5.105 Q49.875 -5.105 51 -5.542 Q52.125 -5.98 53 -6.855 L70 -23.855 L72.5 -21.355 L55.5 -4.355 Q54.625 -3.48 54.188 -2.23 Q53.75 -0.98 53.75 0.02 Q53.75 2.02 55.125 3.208 Q56.5 4.395 58.25 4.395 Z M58.25 7.895 Q54.625 7.895 52.125 5.145 Q49.625 2.395 50.25 -1.605 Q46 -1.355 43.188 -3.855 Q40.375 -6.355 40.75 -11.105 Q36 -10.855 33.375 -13.48 Q30.75 -16.105 31.25 -20.605 Q27.25 -20.355 24.5 -22.417 Q21.75 -24.48 21.75 -28.605 Q21.75 -30.355 22.438 -32.167 Q23.125 -33.98 24.5 -35.355 L48.5 -59.355 L60.375 -47.48 Q61.125 -46.73 62.188 -46.23 Q63.25 -45.73 64.625 -45.73 Q66.375 -45.73 67.75 -46.98 Q69.125 -48.23 69.125 -50.23 Q69.125 -51.605 68.625 -52.667 Q68.125 -53.73 67.375 -54.48 L50.375 -71.48 Q48.375 -73.48 46.312 -74.417 Q44.25 -75.355 41.75 -75.355 Q39.25 -75.355 37.312 -74.417 Q35.375 -73.48 33.375 -71.48 L18.875 -56.98 Q17.125 -55.23 16.062 -52.792 Q15 -50.355 15 -47.73 Q15 -45.98 15.375 -44.417 Q15.75 -42.855 16.5 -41.48 L13.75 -38.73 Q12.75 -40.48 12.125 -42.855 Q11.5 -45.23 11.5 -47.73 Q11.5 -51.105 12.75 -54.167 Q14 -57.23 16.375 -59.605 L30.75 -73.98 Q33.25 -76.48 35.938 -77.667 Q38.625 -78.855 41.875 -78.855 Q45.125 -78.855 47.75 -77.667 Q50.375 -76.48 52.875 -73.98 L58.125 -68.73 L63.375 -73.98 Q65.875 -76.48 68.5 -77.667 Q71.125 -78.855 74.375 -78.855 Q77.625 -78.855 80.312 -77.667 Q83 -76.48 85.5 -73.98 L103.375 -56.105 Q105.875 -53.605 107.25 -50.542 Q108.625 -47.48 108.625 -44.23 Q108.625 -40.98 107.25 -38.355 Q105.875 -35.73 103.375 -33.23 L65 5.145 Q63.5 6.645 61.812 7.27 Q60.125 7.895 58.25 7.895 Z"/></g><g id="Bold-S" transform="matrix(1 0 0 1 2294.23 696)"><path d="M48.524 -4.36 Q49.017 -4.36 49.411 -4.459 Q49.806 -4.558 50.299 -5.051 L80.084 -34.934 Q81.366 -36.216 82.155 -37.991 Q82.944 -39.767 82.944 -41.813 Q82.944 -43.852 82.155 -45.754 Q81.366 -47.657 80.084 -49.037 L65.388 -63.831 Q64.106 -64.916 62.687 -65.409 Q61.268 -65.902 59.668 -65.902 Q57.498 -65.902 55.723 -64.817 Q53.948 -63.733 52.666 -62.648 L53.553 -63.437 L60.161 -57.223 Q62.232 -55.054 63.416 -52.588 Q64.599 -50.122 64.599 -47.065 Q64.599 -41.936 60.95 -38.287 Q57.301 -34.638 52.185 -34.638 Q49.621 -34.638 47.347 -35.575 Q45.072 -36.512 43.099 -38.485 L35.308 -46.375 L22.289 -33.455 Q21.993 -33.06 21.796 -32.593 Q21.599 -32.126 21.599 -31.648 Q21.599 -30.693 22.265 -30.101 Q22.93 -29.51 23.884 -29.51 Q24.36 -29.51 24.804 -29.707 Q25.248 -29.904 25.643 -30.2 L36.097 -40.457 L41.028 -35.526 L30.574 -25.17 Q30.179 -24.776 30.031 -24.265 Q29.883 -23.754 29.883 -23.284 Q29.883 -22.342 30.482 -21.734 Q31.081 -21.127 32.058 -21.127 Q32.546 -21.127 33.039 -21.324 Q33.532 -21.521 33.927 -21.817 L44.085 -32.074 L49.115 -27.044 L38.661 -16.787 Q38.365 -16.393 38.168 -15.875 Q37.971 -15.357 37.971 -14.889 Q37.971 -13.952 38.619 -13.298 Q39.267 -12.645 40.244 -12.645 Q40.732 -12.645 41.225 -12.842 Q41.718 -13.039 42.014 -13.335 L52.37 -23.789 L57.4 -18.76 L47.044 -8.503 Q46.748 -8.108 46.551 -7.573 Q46.354 -7.039 46.354 -6.54 Q46.354 -5.544 46.946 -4.952 Q47.537 -4.36 48.524 -4.36 Z M48.524 5.601 Q44.283 5.601 41.028 3.086 Q37.773 0.571 36.787 -3.374 Q33.927 -3.867 31.56 -6.333 Q29.193 -8.798 28.503 -11.671 Q25.643 -12.448 23.276 -14.667 Q20.909 -16.886 20.317 -19.746 Q16.569 -20.436 13.955 -23.888 Q11.342 -27.34 11.342 -31.649 Q11.342 -34.046 12.279 -36.315 Q13.216 -38.583 14.991 -40.358 L35.308 -60.675 L50.2 -45.783 Q50.792 -45.29 51.186 -45.092 Q51.581 -44.895 52.137 -44.895 Q53.068 -44.895 53.656 -45.586 Q54.244 -46.276 54.244 -47.192 Q54.244 -47.643 53.997 -48.241 Q53.751 -48.84 53.455 -49.136 L38.464 -64.127 Q37.477 -65.113 35.845 -65.508 Q34.213 -65.902 32.398 -65.902 Q30.574 -65.902 29.193 -65.459 Q27.812 -65.015 26.826 -64.127 L13.095 -50.489 Q12.427 -49.826 12.032 -48.396 Q11.638 -46.966 11.736 -45.092 Q11.835 -44.895 12.032 -44.747 Q12.229 -44.599 12.131 -44.205 L4.734 -36.907 Q3.512 -38.06 2.643 -40.442 Q1.775 -42.824 1.677 -45.092 Q1.578 -49.037 2.564 -52.144 Q3.55 -55.251 6.016 -57.618 L19.626 -71.327 Q21.895 -73.694 25.396 -74.877 Q28.897 -76.061 32.448 -76.061 Q36.294 -76.061 39.647 -74.877 Q43.001 -73.694 45.269 -71.623 L46.058 -70.932 L46.748 -71.721 Q48.819 -73.595 52.321 -74.877 Q55.822 -76.159 59.57 -76.159 Q63.12 -76.159 66.523 -74.779 Q69.925 -73.398 72.292 -71.031 L87.974 -55.448 Q90.341 -53.081 91.623 -49.481 Q92.905 -45.881 92.905 -42.134 Q92.905 -38.287 91.475 -34.441 Q90.045 -30.595 87.48 -28.03 L57.4 2.05 Q55.526 3.924 53.304 4.762 Q51.083 5.601 48.524 5.601 Z"/></g><g id="Semibold-S" transform="matrix(1 0 0 1 1998.1 696)"><path d="M48.652 -4.36 Q49.145 -4.36 49.561 -4.502 Q49.977 -4.643 50.385 -5.051 L80.384 -35.149 Q81.537 -36.302 82.219 -37.863 Q82.901 -39.424 82.901 -41.17 Q82.901 -42.951 82.219 -44.596 Q81.537 -46.242 80.384 -47.451 L64.102 -63.831 Q62.906 -64.873 61.551 -65.388 Q60.196 -65.902 58.682 -65.902 Q56.598 -65.902 54.887 -64.796 Q53.176 -63.69 51.851 -62.476 L52.353 -62.922 L59.304 -56.323 Q61.16 -54.41 62.237 -52.181 Q63.313 -49.951 63.313 -47.237 Q63.313 -42.623 60.05 -39.359 Q56.787 -36.096 52.185 -36.096 Q49.922 -36.096 47.882 -36.926 Q45.843 -37.756 44.128 -39.471 L36.208 -47.447 L22.203 -33.498 Q21.908 -33.103 21.71 -32.657 Q21.513 -32.212 21.513 -31.734 Q21.513 -30.779 22.2 -30.144 Q22.887 -29.51 23.841 -29.51 Q24.317 -29.51 24.74 -29.707 Q25.162 -29.904 25.557 -30.2 L36.568 -41.057 L41.5 -36.126 L30.488 -25.17 Q30.093 -24.776 29.946 -24.308 Q29.798 -23.84 29.798 -23.369 Q29.798 -22.428 30.439 -21.777 Q31.081 -21.127 32.058 -21.127 Q32.546 -21.127 33.018 -21.324 Q33.49 -21.521 33.841 -21.817 L44.686 -32.717 L49.716 -27.687 L38.704 -16.83 Q38.365 -16.436 38.189 -15.939 Q38.014 -15.443 38.014 -14.974 Q38.014 -14.037 38.683 -13.363 Q39.353 -12.688 40.329 -12.688 Q40.818 -12.688 41.29 -12.885 Q41.761 -13.082 42.057 -13.378 L53.013 -24.39 L58.043 -19.36 L47.087 -8.503 Q46.791 -8.108 46.594 -7.616 Q46.397 -7.125 46.397 -6.626 Q46.397 -5.63 47.031 -4.995 Q47.666 -4.36 48.652 -4.36 Z M48.609 4.272 Q44.626 4.272 41.628 1.799 Q38.631 -0.673 37.902 -4.446 Q34.87 -4.853 32.525 -7.276 Q30.179 -9.699 29.575 -12.743 Q26.5 -13.391 24.154 -15.653 Q21.809 -17.915 21.346 -20.946 Q17.641 -21.422 15.135 -24.574 Q12.628 -27.726 12.628 -31.735 Q12.628 -33.918 13.458 -35.95 Q14.288 -37.983 15.891 -39.587 L36.208 -59.861 L50.286 -45.783 Q50.792 -45.333 51.186 -45.157 Q51.581 -44.981 52.094 -44.981 Q53.068 -44.981 53.699 -45.671 Q54.33 -46.362 54.33 -47.32 Q54.33 -47.771 54.104 -48.306 Q53.879 -48.84 53.583 -49.136 L38.721 -63.999 Q37.692 -65.028 36.21 -65.465 Q34.728 -65.902 33.084 -65.902 Q31.474 -65.902 30.136 -65.416 Q28.798 -64.929 27.769 -63.999 L13.438 -49.717 Q12.641 -48.926 12.182 -47.539 Q11.724 -46.152 11.779 -44.492 Q11.835 -44.038 12.032 -43.632 Q12.229 -43.227 12.302 -42.661 L5.849 -36.306 Q4.584 -37.717 3.823 -39.97 Q3.062 -42.224 3.006 -44.492 Q2.95 -47.966 3.958 -50.858 Q4.965 -53.75 7.26 -55.946 L21.513 -70.255 Q23.653 -72.45 26.768 -73.591 Q29.883 -74.732 33.134 -74.732 Q36.551 -74.732 39.583 -73.591 Q42.615 -72.45 44.754 -70.422 L45.886 -69.346 L46.963 -70.521 Q48.991 -72.437 52.106 -73.634 Q55.221 -74.83 58.583 -74.83 Q61.834 -74.83 64.872 -73.578 Q67.91 -72.326 70.105 -70.13 L86.987 -53.304 Q89.183 -51.109 90.379 -47.959 Q91.576 -44.81 91.576 -41.448 Q91.576 -38.03 90.296 -34.72 Q89.016 -31.409 86.709 -29.102 L56.542 1.064 Q54.883 2.724 52.875 3.498 Q50.868 4.272 48.609 4.272 Z"/></g><g id="Medium-S" transform="matrix(1 0 0 1 1701.85 696)"><path d="M48.749 -4.36 Q49.242 -4.36 49.674 -4.534 Q50.106 -4.708 50.449 -5.051 L80.609 -35.309 Q81.666 -36.366 82.267 -37.766 Q82.869 -39.166 82.869 -40.688 Q82.869 -42.276 82.267 -43.728 Q81.666 -45.18 80.609 -46.261 L63.137 -63.831 Q62.005 -64.841 60.699 -65.372 Q59.392 -65.902 57.942 -65.902 Q55.923 -65.902 54.26 -64.78 Q52.597 -63.658 51.24 -62.348 L51.452 -62.536 L58.66 -55.648 Q60.356 -53.928 61.352 -51.875 Q62.348 -49.822 62.348 -47.365 Q62.348 -43.137 59.374 -40.163 Q56.401 -37.19 52.185 -37.19 Q50.147 -37.19 48.284 -37.939 Q46.422 -38.688 44.9 -40.211 L36.884 -48.251 L22.139 -33.53 Q21.843 -33.135 21.646 -32.706 Q21.449 -32.276 21.449 -31.798 Q21.449 -30.843 22.152 -30.177 Q22.855 -29.51 23.809 -29.51 Q24.285 -29.51 24.692 -29.707 Q25.098 -29.904 25.492 -30.2 L36.922 -41.508 L41.853 -36.576 L30.424 -25.17 Q30.029 -24.776 29.881 -24.34 Q29.733 -23.905 29.733 -23.434 Q29.733 -22.492 30.407 -21.809 Q31.081 -21.127 32.058 -21.127 Q32.546 -21.127 33.002 -21.324 Q33.457 -21.521 33.777 -21.817 L45.136 -33.2 L50.166 -28.17 L38.736 -16.862 Q38.365 -16.468 38.205 -15.987 Q38.046 -15.507 38.046 -15.039 Q38.046 -14.102 38.731 -13.411 Q39.417 -12.72 40.394 -12.72 Q40.882 -12.72 41.338 -12.917 Q41.793 -13.114 42.089 -13.41 L53.495 -24.84 L58.525 -19.81 L47.119 -8.503 Q46.823 -8.108 46.626 -7.649 Q46.429 -7.189 46.429 -6.691 Q46.429 -5.694 47.096 -5.027 Q47.762 -4.36 48.749 -4.36 Z M48.674 3.274 Q44.883 3.274 42.079 0.835 Q39.274 -1.605 38.738 -5.25 Q35.578 -5.593 33.248 -7.984 Q30.919 -10.374 30.379 -13.547 Q27.143 -14.099 24.814 -16.393 Q22.484 -18.687 22.118 -21.847 Q18.445 -22.162 16.019 -25.089 Q13.593 -28.015 13.593 -31.799 Q13.593 -33.821 14.342 -35.677 Q15.092 -37.533 16.567 -39.008 L36.884 -59.25 L50.35 -45.783 Q50.792 -45.365 51.186 -45.205 Q51.581 -45.045 52.062 -45.045 Q53.068 -45.045 53.731 -45.736 Q54.394 -46.426 54.394 -47.417 Q54.394 -47.868 54.185 -48.354 Q53.976 -48.84 53.68 -49.136 L38.914 -63.902 Q37.853 -64.963 36.483 -65.433 Q35.113 -65.902 33.599 -65.902 Q32.15 -65.902 30.844 -65.384 Q29.538 -64.865 28.477 -63.902 L13.696 -49.138 Q12.802 -48.251 12.295 -46.896 Q11.788 -45.541 11.811 -44.042 Q11.835 -43.394 12.032 -42.796 Q12.229 -42.198 12.431 -41.503 L6.685 -35.856 Q5.388 -37.459 4.707 -39.617 Q4.026 -41.774 4.003 -44.042 Q3.979 -47.161 5.003 -49.893 Q6.027 -52.624 8.192 -54.691 L22.928 -69.451 Q24.971 -71.518 27.797 -72.626 Q30.623 -73.734 33.648 -73.734 Q36.744 -73.734 39.535 -72.626 Q42.325 -71.518 44.368 -69.522 L45.758 -68.156 L47.123 -69.62 Q49.119 -71.569 51.945 -72.701 Q54.771 -73.833 57.844 -73.833 Q60.869 -73.833 63.634 -72.678 Q66.398 -71.522 68.465 -69.455 L86.248 -51.696 Q88.314 -49.629 89.446 -46.817 Q90.578 -44.005 90.578 -40.933 Q90.578 -37.837 89.411 -34.929 Q88.244 -32.02 86.13 -29.906 L55.899 0.324 Q54.4 1.823 52.554 2.549 Q50.707 3.274 48.674 3.274 Z"/></g><g id="Regular-S" transform="matrix(1 0 0 1 1405.73 696)"><path d="M48.819 -4.36 Q49.312 -4.36 49.756 -4.558 Q50.2 -4.755 50.496 -5.051 L80.774 -35.427 Q81.76 -36.413 82.303 -37.696 Q82.845 -38.978 82.845 -40.334 Q82.845 -41.78 82.303 -43.091 Q81.76 -44.402 80.774 -45.388 L62.43 -63.831 Q61.345 -64.817 60.074 -65.36 Q58.802 -65.902 57.4 -65.902 Q55.427 -65.902 53.8 -64.768 Q52.173 -63.634 50.792 -62.253 L58.189 -55.152 Q59.767 -53.574 60.704 -51.651 Q61.641 -49.728 61.641 -47.459 Q61.641 -43.514 58.879 -40.753 Q56.118 -37.991 52.185 -37.991 Q50.312 -37.991 48.579 -38.682 Q46.847 -39.372 45.466 -40.753 L37.379 -48.84 L22.092 -33.553 Q21.796 -33.159 21.599 -32.741 Q21.402 -32.323 21.402 -31.846 Q21.402 -30.89 22.117 -30.2 Q22.832 -29.51 23.785 -29.51 Q24.262 -29.51 24.656 -29.707 Q25.051 -29.904 25.445 -30.2 L37.182 -41.838 L42.113 -36.907 L30.377 -25.17 Q29.982 -24.776 29.834 -24.364 Q29.686 -23.952 29.686 -23.481 Q29.686 -22.539 30.384 -21.833 Q31.081 -21.127 32.058 -21.127 Q32.546 -21.127 32.99 -21.324 Q33.434 -21.521 33.73 -21.817 L45.466 -33.553 L50.496 -28.523 L38.76 -16.886 Q38.365 -16.491 38.217 -16.023 Q38.069 -15.554 38.069 -15.086 Q38.069 -14.149 38.767 -13.446 Q39.464 -12.743 40.441 -12.743 Q40.929 -12.743 41.373 -12.941 Q41.817 -13.138 42.113 -13.434 L53.849 -25.17 L58.879 -20.14 L47.143 -8.503 Q46.847 -8.108 46.65 -7.672 Q46.452 -7.236 46.452 -6.738 Q46.452 -5.741 47.143 -5.051 Q47.833 -4.36 48.819 -4.36 Z M48.721 2.543 Q45.072 2.543 42.409 0.127 Q39.746 -2.289 39.351 -5.84 Q36.097 -6.136 33.779 -8.503 Q31.461 -10.87 30.968 -14.137 Q27.615 -14.617 25.297 -16.935 Q22.98 -19.253 22.684 -22.507 Q19.035 -22.705 16.668 -25.466 Q14.301 -28.228 14.301 -31.846 Q14.301 -33.751 14.991 -35.477 Q15.681 -37.202 17.062 -38.583 L37.379 -58.801 L50.397 -45.783 Q50.792 -45.388 51.186 -45.24 Q51.581 -45.092 52.038 -45.092 Q53.068 -45.092 53.755 -45.783 Q54.441 -46.473 54.441 -47.488 Q54.441 -47.939 54.244 -48.389 Q54.047 -48.84 53.751 -49.136 L39.056 -63.831 Q37.971 -64.916 36.684 -65.409 Q35.397 -65.902 33.976 -65.902 Q32.645 -65.902 31.363 -65.36 Q30.081 -64.817 28.996 -63.831 L13.884 -48.714 Q12.92 -47.755 12.377 -46.424 Q11.835 -45.092 11.835 -43.712 Q11.835 -42.923 12.032 -42.183 Q12.229 -41.443 12.525 -40.654 L7.298 -35.526 Q5.977 -37.271 5.356 -39.357 Q4.734 -41.443 4.734 -43.712 Q4.734 -46.572 5.77 -49.185 Q6.805 -51.799 8.876 -53.771 L23.966 -68.861 Q25.938 -70.834 28.552 -71.918 Q31.166 -73.003 34.026 -73.003 Q36.886 -73.003 39.499 -71.918 Q42.113 -70.834 44.085 -68.861 L45.663 -67.283 L47.241 -68.96 Q49.214 -70.932 51.827 -72.017 Q54.441 -73.102 57.301 -73.102 Q60.161 -73.102 62.726 -72.017 Q65.29 -70.932 67.262 -68.96 L85.705 -50.517 Q87.678 -48.544 88.763 -45.98 Q89.847 -43.416 89.847 -40.556 Q89.847 -37.696 88.763 -35.082 Q87.678 -32.468 85.705 -30.496 L55.427 -0.218 Q54.047 1.163 52.318 1.853 Q50.589 2.543 48.721 2.543 Z"/></g><g id="Light-S" transform="matrix(1 0 0 1 1109.75 696)"><path d="M48.478 -4.474 Q49.161 -4.474 49.813 -4.747 Q50.466 -5.02 50.913 -5.468 L80.395 -35.048 Q81.532 -36.186 82.208 -37.506 Q82.883 -38.826 82.883 -40.372 Q82.883 -41.97 82.208 -43.452 Q81.532 -44.933 80.395 -46.109 L63.037 -63.566 Q61.762 -64.704 60.434 -65.322 Q59.106 -65.94 57.552 -65.94 Q55.389 -65.94 53.705 -64.73 Q52.021 -63.52 50.526 -61.988 L49.35 -60.812 L56.747 -53.749 Q58.173 -52.284 59.053 -50.513 Q59.934 -48.742 59.934 -46.701 Q59.934 -43.287 57.57 -40.924 Q55.207 -38.561 51.805 -38.561 Q50.16 -38.561 48.617 -39.137 Q47.075 -39.714 45.808 -40.981 L37.644 -49.182 L22.471 -34.009 Q22.024 -33.462 21.751 -32.836 Q21.477 -32.209 21.477 -31.542 Q21.477 -30.284 22.344 -29.46 Q23.211 -28.637 24.468 -28.637 Q25.134 -28.637 25.737 -28.91 Q26.341 -29.183 26.887 -29.631 L38.168 -40.814 L41.734 -37.248 L30.414 -25.967 Q29.868 -25.421 29.644 -24.8 Q29.421 -24.179 29.421 -23.519 Q29.421 -22.312 30.289 -21.435 Q31.157 -20.558 32.399 -20.558 Q33.077 -20.558 33.73 -20.831 Q34.382 -21.104 34.83 -21.551 L46.566 -33.326 L50.23 -29.662 L38.456 -18.024 Q37.948 -17.478 37.705 -16.8 Q37.462 -16.123 37.462 -15.465 Q37.462 -14.263 38.33 -13.389 Q39.199 -12.516 40.441 -12.516 Q41.119 -12.516 41.772 -12.789 Q42.424 -13.062 42.872 -13.51 L54.608 -25.284 L58.272 -21.62 L46.536 -9.982 Q46.088 -9.436 45.815 -8.753 Q45.542 -8.071 45.542 -7.421 Q45.542 -6.12 46.403 -5.297 Q47.264 -4.474 48.478 -4.474 Z M48.417 0.457 Q45.072 0.457 42.731 -1.865 Q40.391 -4.186 40.376 -7.547 Q37.121 -7.577 34.822 -9.83 Q32.524 -12.084 32.334 -15.503 Q28.829 -15.718 26.568 -17.94 Q24.307 -20.163 24.353 -23.532 Q20.931 -23.463 18.64 -25.789 Q16.349 -28.114 16.349 -31.543 Q16.349 -33.22 16.964 -34.794 Q17.578 -36.368 18.845 -37.635 L37.644 -56.374 L49.297 -44.721 Q49.843 -44.212 50.409 -43.97 Q50.974 -43.727 51.697 -43.727 Q52.916 -43.727 53.793 -44.588 Q54.669 -45.449 54.669 -46.729 Q54.669 -47.445 54.376 -48.067 Q54.084 -48.688 53.675 -49.136 L39.245 -63.566 Q37.971 -64.802 36.608 -65.371 Q35.245 -65.94 33.673 -65.94 Q32.152 -65.94 30.851 -65.322 Q29.55 -64.704 28.313 -63.566 L14.15 -49.434 Q12.996 -48.286 12.359 -46.67 Q11.721 -45.055 11.797 -43.332 Q11.873 -42.467 12.108 -41.728 Q12.343 -40.988 12.639 -40.199 L8.778 -36.436 Q7.798 -37.84 7.29 -39.604 Q6.783 -41.368 6.707 -43.332 Q6.631 -46.155 7.59 -48.692 Q8.55 -51.23 10.545 -53.127 L24.649 -67.23 Q26.469 -69.089 28.78 -70.079 Q31.09 -71.069 33.76 -71.069 Q36.43 -71.069 38.722 -70.079 Q41.013 -69.089 42.871 -67.23 L45.625 -64.476 L48.379 -67.328 Q50.2 -69.187 52.491 -70.177 Q54.782 -71.167 57.453 -71.167 Q60.123 -71.167 62.384 -70.177 Q64.645 -69.187 66.504 -67.328 L83.96 -49.872 Q85.819 -48.013 86.866 -45.658 Q87.913 -43.302 87.913 -40.632 Q87.913 -37.961 86.866 -35.67 Q85.819 -33.379 83.96 -31.52 L54.479 -2.001 Q53.174 -0.696 51.635 -0.12 Q50.096 0.457 48.417 0.457 Z"/></g><g id="Thin-S" transform="matrix(1 0 0 1 814.015 696)"><path d="M48.137 -4.588 Q49.009 -4.588 49.87 -4.937 Q50.731 -5.286 51.33 -5.885 L80.015 -34.669 Q81.305 -35.958 82.113 -37.316 Q82.921 -38.674 82.921 -40.41 Q82.921 -42.16 82.113 -43.812 Q81.305 -45.464 80.015 -46.83 L63.644 -63.3 Q62.179 -64.59 60.794 -65.284 Q59.409 -65.978 57.703 -65.978 Q55.351 -65.978 53.61 -64.692 Q51.869 -63.406 50.261 -61.722 L47.909 -59.37 L55.306 -52.345 Q56.58 -50.995 57.404 -49.375 Q58.227 -47.755 58.227 -45.942 Q58.227 -43.059 56.262 -41.094 Q54.297 -39.129 51.426 -39.129 Q50.008 -39.129 48.655 -39.592 Q47.302 -40.055 46.149 -41.208 L37.91 -49.523 L22.851 -34.464 Q22.251 -33.766 21.902 -32.931 Q21.553 -32.096 21.553 -31.239 Q21.553 -29.677 22.572 -28.721 Q23.59 -27.765 25.151 -27.765 Q26.007 -27.765 26.818 -28.114 Q27.63 -28.463 28.328 -29.062 L39.154 -39.79 L41.354 -37.589 L30.452 -26.763 Q29.754 -26.065 29.455 -25.236 Q29.155 -24.407 29.155 -23.557 Q29.155 -22.084 30.194 -21.036 Q31.233 -19.989 32.741 -19.989 Q33.608 -19.989 34.469 -20.338 Q35.331 -20.687 35.93 -21.286 L47.666 -33.098 L49.965 -30.799 L38.153 -19.162 Q37.531 -18.464 37.193 -17.578 Q36.855 -16.692 36.855 -15.844 Q36.855 -14.377 37.894 -13.332 Q38.933 -12.288 40.441 -12.288 Q41.309 -12.288 42.17 -12.637 Q43.031 -12.986 43.63 -13.586 L55.367 -25.398 L57.665 -23.099 L45.929 -11.461 Q45.33 -10.763 44.981 -9.834 Q44.632 -8.905 44.632 -8.103 Q44.632 -6.5 45.663 -5.544 Q46.695 -4.588 48.137 -4.588 Z M48.114 -1.629 Q45.072 -1.629 43.054 -3.856 Q41.036 -6.082 41.4 -9.254 Q38.145 -9.019 35.865 -11.158 Q33.586 -13.297 33.699 -16.868 Q30.043 -16.818 27.839 -18.945 Q25.635 -21.073 26.022 -24.556 Q22.828 -24.222 20.613 -26.111 Q18.397 -28 18.397 -31.239 Q18.397 -32.689 18.936 -34.111 Q19.475 -35.533 20.628 -36.687 L37.91 -53.946 L48.197 -43.659 Q48.895 -43.037 49.631 -42.699 Q50.367 -42.361 51.356 -42.361 Q52.765 -42.361 53.83 -43.393 Q54.896 -44.425 54.896 -45.97 Q54.896 -46.952 54.509 -47.745 Q54.122 -48.537 53.599 -49.136 L39.435 -63.3 Q37.971 -64.688 36.532 -65.333 Q35.093 -65.978 33.369 -65.978 Q31.659 -65.978 30.339 -65.284 Q29.019 -64.59 27.63 -63.3 L14.416 -50.155 Q13.072 -48.817 12.339 -46.917 Q11.607 -45.017 11.759 -42.953 Q11.911 -42.012 12.184 -41.273 Q12.457 -40.533 12.753 -39.744 L10.257 -37.347 Q9.619 -38.409 9.225 -39.85 Q8.831 -41.292 8.679 -42.953 Q8.527 -45.737 9.411 -48.199 Q10.295 -50.661 12.214 -52.482 L25.331 -65.599 Q27 -67.344 29.007 -68.239 Q31.014 -69.134 33.495 -69.134 Q35.975 -69.134 37.944 -68.239 Q39.913 -67.344 41.658 -65.599 L45.588 -61.669 L49.517 -65.698 Q51.186 -67.443 53.155 -68.338 Q55.124 -69.233 57.605 -69.233 Q60.085 -69.233 62.043 -68.338 Q64 -67.443 65.745 -65.698 L82.215 -49.227 Q83.96 -47.482 84.969 -45.335 Q85.978 -43.188 85.978 -40.707 Q85.978 -38.227 84.969 -36.258 Q83.96 -34.289 82.215 -32.544 L53.531 -3.784 Q52.302 -2.555 50.952 -2.092 Q49.603 -1.629 48.114 -1.629 Z"/></g><g id="Ultralight-S" transform="matrix(1 0 0 1 517.792 696)"><path d="M47.932 -4.656 Q48.918 -4.656 49.904 -5.051 Q50.891 -5.445 51.581 -6.136 L79.788 -34.441 Q81.168 -35.822 82.056 -37.202 Q82.944 -38.583 82.944 -40.432 Q82.944 -42.274 82.056 -44.028 Q81.168 -45.783 79.788 -47.262 L64.008 -63.141 Q62.43 -64.522 61.011 -65.261 Q59.591 -66.001 57.794 -66.001 Q55.329 -66.001 53.553 -64.67 Q51.778 -63.338 50.102 -61.563 L47.044 -58.505 L54.441 -51.503 Q55.625 -50.221 56.413 -48.692 Q57.203 -47.164 57.203 -45.487 Q57.203 -42.923 55.477 -41.197 Q53.751 -39.471 51.198 -39.471 Q49.917 -39.471 48.678 -39.865 Q47.439 -40.26 46.354 -41.345 L38.069 -49.728 L23.078 -34.737 Q22.388 -33.948 21.993 -32.988 Q21.599 -32.027 21.599 -31.057 Q21.599 -29.312 22.708 -28.277 Q23.818 -27.241 25.56 -27.241 Q26.53 -27.241 27.467 -27.636 Q28.404 -28.03 29.193 -28.721 L39.746 -39.175 L41.127 -37.794 L30.475 -27.241 Q29.686 -26.452 29.341 -25.498 Q28.996 -24.543 28.996 -23.58 Q28.996 -21.947 30.137 -20.797 Q31.278 -19.647 32.945 -19.647 Q33.927 -19.647 34.913 -20.042 Q35.9 -20.436 36.59 -21.127 L48.326 -32.962 L49.806 -31.482 L37.971 -19.844 Q37.28 -19.055 36.886 -18.045 Q36.491 -17.034 36.491 -16.072 Q36.491 -14.445 37.632 -13.298 Q38.774 -12.152 40.441 -12.152 Q41.422 -12.152 42.409 -12.546 Q43.395 -12.941 44.085 -13.631 L55.822 -25.466 L57.301 -23.987 L45.565 -12.349 Q44.874 -11.56 44.48 -10.483 Q44.085 -9.406 44.085 -8.513 Q44.085 -6.727 45.22 -5.692 Q46.354 -4.656 47.932 -4.656 Z M47.932 -2.881 Q45.072 -2.881 43.247 -5.051 Q41.422 -7.22 42.014 -10.278 Q38.76 -9.883 36.491 -11.954 Q34.223 -14.026 34.519 -17.687 Q30.771 -17.477 28.601 -19.549 Q26.431 -21.62 27.023 -25.17 Q23.966 -24.677 21.796 -26.304 Q19.626 -27.932 19.626 -31.057 Q19.626 -32.37 20.12 -33.701 Q20.613 -35.033 21.698 -36.118 L38.069 -52.489 L47.537 -43.021 Q48.326 -42.331 49.165 -41.936 Q50.003 -41.542 51.151 -41.542 Q52.674 -41.542 53.853 -42.676 Q55.033 -43.81 55.033 -45.515 Q55.033 -46.656 54.589 -47.551 Q54.145 -48.446 53.553 -49.136 L39.549 -63.141 Q37.971 -64.62 36.486 -65.311 Q35.002 -66.001 33.187 -66.001 Q31.363 -66.001 30.031 -65.261 Q28.7 -64.522 27.221 -63.141 L14.575 -50.587 Q13.117 -49.136 12.328 -47.065 Q11.539 -44.994 11.736 -42.725 Q11.934 -41.739 12.229 -41 Q12.525 -40.26 12.821 -39.471 L11.145 -37.893 Q10.711 -38.75 10.386 -39.998 Q10.06 -41.246 9.863 -42.725 Q9.665 -45.487 10.504 -47.903 Q11.342 -50.32 13.216 -52.095 L25.741 -64.62 Q27.319 -66.297 29.144 -67.135 Q30.968 -67.973 33.335 -67.973 Q35.702 -67.973 37.477 -67.135 Q39.253 -66.297 40.929 -64.62 L45.565 -59.985 L50.2 -64.719 Q51.778 -66.395 53.553 -67.234 Q55.329 -68.072 57.696 -68.072 Q60.063 -68.072 61.838 -67.234 Q63.613 -66.395 65.29 -64.719 L81.168 -48.84 Q82.845 -47.164 83.831 -45.142 Q84.818 -43.12 84.818 -40.753 Q84.818 -38.386 83.831 -36.611 Q82.845 -34.835 81.168 -33.159 L52.962 -4.853 Q51.778 -3.67 50.543 -3.275 Q49.307 -2.881 47.932 -2.881 Z"/></g></g></svg>